<svg xmlns="http://www.w3.org/2000/svg" id="Layer_2" data-name="Layer 2" viewBox="0 0 134.57 183.83"><defs><style>      .cls-1 {        fill: #aae600;      }      .cls-1, .cls-2 {        stroke-width: 0px;      }      .cls-2 {        fill: #6eb400;      }    </style></defs><g id="Layer_1-2" data-name="Layer 1"><path class="cls-2" d="M3.6,107.07l-3.6,38.85s2.52,31.3,43.53,37.05,49.64-35.25,28.42-47.48L3.6,107.07Z"></path><path class="cls-2" d="M28.42,22.18s-2.88,10.79,10.07,7.19c0,0,10.07-18.35,27.34-17.27s22.3,6.12,28.78,16.55c0,0,9.35,5.04,10.43-5.4s-47.48-46.05-76.62-1.08Z"></path><path class="cls-1" d="M98.93,183.53c-.27.69,23.74,0,23.74,0,0,0,12.59-3.79,11.87-21.77l-11.51-104.68s2.52-15.47-24.1-14.75l-66.19-.02s-22.66,1.82-24.82,23.77,28.42,33.81,43.17,35.97,45.33,17.63,48.2,26.98,15.47,13.67-.36,54.51Z"></path></g></svg>